# xmcd CD database file
#
# Track frame offsets:
#	150
#	20845
#	38627
#	54617
#	77165
#	98205
#	115055
#	132257
#	152912
#	173255
#	189925
#	212020
#	234407
#	251945
#	271312
#
# Disc length: 3904 seconds
#
# Revision: 4
# Processed by: cddbd v1.4PL0 Copyright (c) Steve Scherf et al.
# Submitted via: CDex 1.40Release
#
DISCID=c50f3e0f
DTITLE=Kiloucura - Kiloucura ao vivo chega de silêncio
DYEAR=1900
DGENRE=Samba
TTITLE0=Gamei
TTITLE1=Eu te Amo
TTITLE2=Eu e ela
TTITLE3=Tudo fica Blue/Supra-sumo do amor
TTITLE4=Timidez
TTITLE5=Amor e amizade
TTITLE6=Desliga e vem
TTITLE7=tu mandas no meu coração
TTITLE8=Sabor morango
TTITLE9=não foi atoa
TTITLE10=cartão postal - quando o sol nascer
TTITLE11=hoje vou pagodear/cada um no seu - capoeira
TTITLE12=chega de silêncio
TTITLE13=vamos viajar
TTITLE14=não vê
EXTD=ID3G: 114
EXTT0=
EXTT1=
EXTT2=
EXTT3=
EXTT4=
EXTT5=
EXTT6=
EXTT7=
EXTT8=
EXTT9=
EXTT10=
EXTT11=
EXTT12=
EXTT13=
EXTT14=
PLAYORDER=
